<svg xmlns="http://www.w3.org/2000/svg" width="1599" height="1920" viewBox="0 0 1599 1920" version="1.1">
<!-- modified from Muhammad Usman, https://www.vecteezy.com/members/usmanabce -->
<path d="M 122.500 51.680 C 110.734 52.715, 95.237 58.313, 85.325 65.109 C 69.898 75.686, 58.514 92.211, 53.368 111.500 C 51.552 118.305, 51.500 139.102, 51.500 857 C 51.500 1570.077, 51.563 1595.770, 53.337 1603.332 C 54.347 1607.640, 57.455 1615.723, 60.244 1621.295 C 71.374 1643.526, 93.533 1659.339, 118.644 1662.969 C 122.415 1663.514, 143.160 1663.969, 164.743 1663.980 L 203.987 1664 204.259 990.750 L 204.531 317.500 206.785 307.756 C 212.943 281.130, 224.847 259.651, 243.539 241.440 C 260.722 224.698, 280.989 213.736, 306.676 207.287 C 313.061 205.684, 346.628 205.540, 828.500 205.037 L 1343.500 204.500 1343.413 161.500 C 1343.330 120.749, 1343.213 118.082, 1341.169 110.500 C 1338.459 100.450, 1332.438 88.209, 1326.549 80.778 C 1316.985 68.709, 1299.776 57.596, 1284 53.302 C 1277.820 51.619, 1249.208 51.527, 702 51.430 C 385.475 51.374, 124.700 51.487, 122.500 51.680 M 1414.183 204.749 C 1425.009 204.910, 1443.009 204.910, 1454.183 204.749 C 1465.358 204.588, 1456.500 204.456, 1434.500 204.456 C 1412.500 204.455, 1403.358 204.587, 1414.183 204.749 M 323.925 256.981 C 315.618 258.051, 304.329 261.705, 297 265.694 C 278.942 275.523, 266.782 290.067, 259.721 310.280 L 256.500 319.500 256.500 1062.500 C 256.500 1786.600, 256.548 1805.653, 258.378 1811.500 C 266.802 1838.416, 285.690 1857.328, 312.500 1865.692 L 321.500 1868.500 900 1868.500 C 1378.473 1868.500, 1479.624 1868.269, 1485 1867.165 C 1516.321 1860.734, 1540.950 1835.473, 1546.587 1804 C 1548.607 1792.721, 1548.587 332.115, 1546.567 321 C 1543.625 304.819, 1537.747 293.261, 1526.160 280.876 C 1514.076 267.959, 1497.839 259.475, 1480.617 257.080 C 1471.744 255.845, 333.489 255.748, 323.925 256.981 M 747.332 371.912 C 745.590 372.353, 742.215 373.873, 739.832 375.289 C 734.227 378.621, 559.771 553.385, 557.443 558 C 556.472 559.925, 555.473 564.656, 555.222 568.513 C 554.847 574.293, 555.156 576.353, 556.975 580.224 C 558.688 583.867, 579.263 605.044, 648.583 674.513 C 746.143 772.283, 741.761 768.365, 753.500 768.329 C 760.650 768.307, 765.374 766.464, 770.770 761.589 C 776.604 756.319, 779.358 749.241, 778.770 741.030 C 778.512 737.430, 777.514 732.913, 776.550 730.992 C 775.587 729.071, 739.412 692.064, 696.161 648.753 L 617.523 570.006 696.156 491.253 C 739.404 447.939, 775.571 410.945, 776.526 409.045 C 779.180 403.768, 779.639 393.961, 777.495 388.349 C 775.226 382.405, 769.621 376.177, 764.500 373.906 C 759.645 371.753, 751.635 370.822, 747.332 371.912 M 942 371.935 C 934.828 374.125, 929.388 378.148, 925.675 384.009 C 924.801 385.388, 918.484 407.438, 911.638 433.009 C 904.791 458.579, 883.622 537.606, 864.595 608.625 C 842.069 692.701, 830 739.410, 830 742.509 C 830 749.690, 831.917 754.692, 836.717 760.030 C 843.902 768.021, 854.934 770.588, 865.216 766.662 C 870.192 764.761, 877.347 757.845, 879.099 753.242 C 880.250 750.220, 884.755 733.822, 896.888 688.500 C 906.854 651.270, 962.297 444.190, 969.044 418.994 C 971.770 408.816, 974 398.884, 974 396.922 C 974 381.006, 956.654 367.461, 942 371.935 M 1044.332 371.959 C 1031.247 375.076, 1022.477 388.697, 1024.998 401.989 C 1025.526 404.775, 1026.467 408.054, 1027.088 409.277 C 1027.709 410.500, 1063.826 447.161, 1107.347 490.747 L 1186.477 569.994 1106.851 649.747 C 1020.471 736.265, 1024.672 731.498, 1024.674 743 C 1024.676 753.043, 1030.673 762.181, 1039.989 766.336 C 1046.144 769.081, 1055.057 769.006, 1061.010 766.161 C 1064.379 764.551, 1088.338 741.166, 1155.687 673.753 L 1245.853 583.500 1247.537 577.613 C 1249.490 570.786, 1248.940 563.723, 1246.017 558.105 C 1244.986 556.122, 1203.497 513.924, 1153.821 464.332 C 1065.939 376.598, 1063.353 374.120, 1058.068 372.582 C 1052.263 370.891, 1049.368 370.760, 1044.332 371.959 M 388.303 882.643 C 383.541 884.332, 376.932 890.297, 374.402 895.190 C 373.465 897.002, 372.488 901.430, 372.230 905.030 C 371.853 910.301, 372.196 912.586, 373.994 916.765 C 376.962 923.665, 383.362 929.468, 390.192 931.454 C 395.001 932.852, 446.630 932.982, 904.019 932.754 L 1412.500 932.500 1417.649 929.784 C 1420.481 928.291, 1424.135 925.446, 1425.770 923.463 C 1428.929 919.631, 1432 911.548, 1432 907.067 C 1432 898.389, 1425.592 887.967, 1417.643 883.716 L 1413.500 881.500 903 881.327 C 453.178 881.174, 392.001 881.331, 388.303 882.643 M 390.994 1045.934 C 385.988 1047.457, 382.149 1050.024, 378.247 1054.456 C 367.237 1066.964, 371.185 1086.159, 386.447 1094.330 L 390.500 1096.500 899.481 1096.754 C 1358.522 1096.983, 1408.989 1096.854, 1413.837 1095.445 C 1423.723 1092.571, 1432 1081.431, 1432 1071 C 1432 1060.632, 1423.764 1049.492, 1413.941 1046.575 C 1409.143 1045.150, 1360.262 1045.008, 901.068 1045.086 C 621.906 1045.133, 392.372 1045.515, 390.994 1045.934 M 389.173 1210.903 C 378.429 1214.618, 371.437 1225.134, 372.200 1236.430 C 372.876 1246.427, 377.994 1254.295, 386.597 1258.563 C 390.442 1260.471, 398.080 1260.500, 902 1260.500 L 1413.500 1260.500 1417.568 1258.322 C 1423.469 1255.164, 1428.635 1248.967, 1430.444 1242.878 C 1432.377 1236.366, 1432.392 1233.678, 1430.529 1227.432 C 1428.605 1220.985, 1424.033 1215.582, 1417.649 1212.216 L 1412.500 1209.500 903.500 1209.281 C 411.348 1209.068, 394.324 1209.122, 389.173 1210.903 M 606.621 1381.804 C 605.826 1383.091, 475 1743.300, 475 1744.203 C 475 1744.641, 485.913 1744.993, 499.250 1744.984 L 523.500 1744.969 541.147 1694.734 L 558.793 1644.500 637.647 1644.260 L 716.500 1644.021 734.146 1694.260 L 751.792 1744.500 777.469 1744.767 L 803.146 1745.034 802.428 1742.767 C 802.033 1741.520, 772.349 1659.725, 736.462 1561 L 671.215 1381.500 639.175 1381.236 C 621.553 1381.091, 606.904 1381.347, 606.621 1381.804 M 859 1563 L 859 1745 883 1745 L 907 1745 907 1677 L 907 1609 936.750 1608.990 C 953.112 1608.984, 971.900 1608.513, 978.500 1607.942 C 1017.219 1604.595, 1044.338 1592.448, 1067 1568.303 C 1079.752 1554.716, 1088.258 1539.043, 1093.052 1520.295 C 1097.253 1503.871, 1097.206 1476.395, 1092.948 1459.184 C 1084.791 1426.212, 1058.618 1400.546, 1021.500 1389.122 C 998.840 1382.148, 983.990 1381.019, 914.750 1381.009 L 859 1381 859 1563 M 1146 1399.500 L 1146 1418 1169.500 1418 L 1193 1418 1193 1563 L 1193 1708 1169.500 1708 L 1146 1708 1146 1726.500 L 1146 1745 1217.500 1745 L 1289 1745 1289 1726.500 L 1289 1708 1265 1708 L 1241 1708 1241 1563 L 1241 1418 1265 1418 L 1289 1418 1289 1399.500 L 1289 1381 1217.500 1381 L 1146 1381 1146 1399.500 M 907 1494.900 L 907 1567 934.326 1567 C 976.341 1567, 993.611 1564.466, 1010.118 1555.878 C 1025.242 1548.009, 1037.409 1533.714, 1042.601 1517.715 C 1046.092 1506.954, 1047.068 1485.694, 1044.606 1474 C 1039.299 1448.784, 1021.190 1432.498, 991.076 1425.859 C 982.565 1423.982, 977.359 1423.695, 944.250 1423.273 L 907 1422.799 907 1494.900 M 605.999 1511.729 C 588.751 1560.003, 574.448 1600.063, 574.213 1600.750 C 573.874 1601.741, 586.946 1602, 637.393 1602 C 672.377 1602, 701 1601.698, 701 1601.329 C 701 1600.191, 638.712 1425.550, 638.013 1424.729 C 637.652 1424.304, 623.246 1463.454, 605.999 1511.729 M 144.183 1715.749 C 155.009 1715.910, 173.009 1715.910, 184.183 1715.749 C 195.358 1715.588, 186.500 1715.456, 164.500 1715.456 C 142.500 1715.455, 133.358 1715.587, 144.183 1715.749" stroke="none" fill="#ffffff" fill-rule="evenodd"/><path d="M 742.446 374.473 C 738.624 376.385, 717.127 397.343, 647.824 466.723 L 558.147 556.500 556.459 562.402 C 554.579 568.970, 554.960 574.897, 557.641 580.832 C 559.727 585.448, 734.619 761.012, 740.790 764.684 C 747.058 768.414, 755.926 768.948, 762.763 766.006 C 769.597 763.067, 775.426 756.672, 777.433 749.913 C 779.388 743.332, 779.386 741.693, 777.422 734.932 C 775.888 729.654, 773.591 727.245, 696.183 649.753 L 616.523 570.006 696.149 490.253 C 782.865 403.398, 778.452 408.432, 778.391 396.466 C 778.298 378.324, 758.712 366.340, 742.446 374.473 M 939 373.307 C 933.456 375.055, 925.775 383.490, 923.800 390 C 922.882 393.025, 901.352 473.125, 875.957 568 C 825.132 757.875, 828.078 744.860, 833.618 755.040 C 839.510 765.864, 852.240 770.649, 864.056 766.480 C 870.409 764.239, 874.348 760.794, 877.390 754.821 C 879.079 751.504, 887.953 720.129, 900.955 671.500 C 912.425 628.600, 933.328 550.474, 947.405 497.886 C 974.983 394.864, 975.003 394.769, 970.916 386.327 C 968.308 380.938, 961.346 374.720, 956.193 373.176 C 951.437 371.751, 943.752 371.810, 939 373.307 M 1038.882 374.793 C 1026.634 381.191, 1021.640 395.426, 1027.408 407.500 C 1029.318 411.498, 1045.450 428.132, 1107.898 490.498 C 1150.854 533.396, 1186 568.937, 1186 569.477 C 1186 570.017, 1150.747 605.793, 1107.659 648.979 C 1055.214 701.545, 1028.687 728.822, 1027.409 731.500 C 1026.056 734.336, 1025.500 737.682, 1025.500 743 C 1025.500 749.424, 1025.904 751.187, 1028.317 755.292 C 1034.883 766.462, 1049.550 771.116, 1061.015 765.666 C 1063.093 764.678, 1101.620 726.866, 1155.182 673.247 C 1254.162 574.161, 1248.008 581.075, 1247.972 569 C 1247.963 565.666, 1247.161 561.728, 1245.936 559 C 1244.367 555.504, 1223.897 534.499, 1154.208 464.873 C 1072.143 382.882, 1064.080 375.108, 1059.572 373.623 C 1051.975 371.121, 1045.175 371.505, 1038.882 374.793 M 391.056 882.592 C 381.820 885.079, 375.448 891.545, 372.988 900.929 C 369.897 912.717, 377.268 926.468, 388.910 930.629 C 391.813 931.667, 489.941 931.919, 902 931.946 L 1411.500 931.980 1416.500 929.617 C 1436.119 920.342, 1435.820 892.823, 1416 883.595 L 1411.500 881.500 904 881.313 C 460.894 881.150, 395.809 881.313, 391.056 882.592 M 388.044 1047.577 C 382.190 1050.117, 378.088 1053.897, 375.307 1059.312 C 368.474 1072.622, 374.391 1088.670, 388.272 1094.469 C 391.546 1095.837, 446.280 1095.998, 902.218 1095.978 C 1395 1095.957, 1412.639 1095.893, 1416.539 1094.122 C 1421.626 1091.810, 1428.286 1084.328, 1429.824 1079.193 C 1431.324 1074.188, 1431.324 1067.812, 1429.824 1062.807 C 1428.280 1057.654, 1422.062 1050.692, 1416.673 1048.084 L 1412.369 1046 901.934 1046.039 C 450.614 1046.074, 391.100 1046.252, 388.044 1047.577 M 388.242 1211.494 C 382.635 1213.931, 378.427 1217.799, 375.459 1223.246 C 373.120 1227.536, 372.602 1229.692, 372.632 1235 C 372.693 1245.582, 377.575 1253.580, 386.762 1258.145 L 391.500 1260.500 901.500 1260.500 L 1411.500 1260.500 1416 1258.405 C 1425.464 1253.999, 1430.956 1245.587, 1430.956 1235.500 C 1430.956 1225.002, 1425.821 1216.790, 1416.500 1212.383 L 1411.500 1210.020 901.500 1210.049 C 463.894 1210.074, 391.038 1210.279, 388.242 1211.494 M 606.529 1382.750 C 604.779 1387.220, 475 1744.296, 475 1744.642 C 475 1744.859, 485.847 1744.915, 499.104 1744.768 L 523.208 1744.500 540.854 1694.266 L 558.500 1644.031 637.613 1644.016 L 716.727 1644 734.525 1694.500 L 752.322 1745 777.617 1745 L 802.911 1745 801.426 1740.750 C 800.609 1738.412, 770.871 1656.513, 735.341 1558.750 L 670.741 1381 638.978 1381 C 609.654 1381, 607.161 1381.134, 606.529 1382.750 M 859 1563 L 859 1745 883 1745 L 907 1745 907 1677 L 907 1609 931.750 1608.979 C 974.959 1608.943, 996.749 1606.736, 1015.651 1600.481 C 1073.032 1581.492, 1103.863 1530.106, 1094.539 1469 C 1091.217 1447.235, 1082.454 1430.283, 1066.875 1415.487 C 1049.759 1399.232, 1028.430 1389.238, 1001 1384.620 C 985 1381.926, 961.682 1381.007, 909.250 1381.004 L 859 1381 859 1563 M 1146 1399.500 L 1146 1418 1169.500 1418 L 1193 1418 1193 1563 L 1193 1708 1169.500 1708 L 1146 1708 1146 1726.500 L 1146 1745 1217.500 1745 L 1289 1745 1289 1726.500 L 1289 1708 1265 1708 L 1241 1708 1241 1563 L 1241 1418 1265 1418 L 1289 1418 1289 1399.500 L 1289 1381 1217.500 1381 L 1146 1381 1146 1399.500 M 605.421 1512.260 L 573.489 1601.500 605.817 1601.764 C 623.598 1601.909, 652.432 1601.909, 669.895 1601.764 L 701.644 1601.500 669.988 1512.750 C 652.578 1463.937, 638.112 1423.779, 637.843 1423.509 C 637.573 1423.240, 622.983 1463.177, 605.421 1512.260 M 907 1495 L 907 1567 937.250 1566.980 C 969.361 1566.960, 982.187 1565.874, 995.829 1562.020 C 1030.682 1552.174, 1050.817 1519.868, 1046.015 1481.500 C 1043.223 1459.198, 1032.861 1443.342, 1015.026 1434.082 C 996.956 1424.700, 985.649 1423.014, 940.750 1423.006 L 907 1423 907 1495" stroke="none" fill="#043659" fill-rule="evenodd"/><path d="M 114.500 0.685 C 85.291 4.504, 58.850 17.289, 38.585 37.391 C 19.961 55.866, 8.181 77.538, 2.359 104.040 C 0.556 112.243, 0.500 135.097, 0.500 857.500 C 0.500 1574.236, 0.569 1602.822, 2.321 1611 C 12.160 1656.940, 44.754 1693.930, 88.176 1708.435 C 105.488 1714.219, 105.917 1714.258, 156.750 1714.715 L 204 1715.139 204.008 1754.820 C 204.018 1803.934, 204.770 1812.032, 211.140 1831.677 C 222.533 1866.808, 250.662 1896.719, 285.419 1910.660 C 295.164 1914.569, 302.545 1916.564, 314.500 1918.520 C 328.136 1920.750, 1475.885 1920.748, 1489.500 1918.517 C 1523.414 1912.960, 1552.555 1895.543, 1572.845 1868.704 C 1585.398 1852.099, 1593.639 1833.371, 1597.577 1812.500 C 1599.165 1804.083, 1599.286 1748.862, 1599.442 960 C 1599.534 496.075, 1599.431 162.175, 1599.213 218 C 1598.853 309.867, 1598.680 318.746, 1597.384 311.555 C 1595.630 301.825, 1590.201 285.343, 1585.944 276.829 C 1571.007 246.949, 1543.072 222.355, 1512.401 212.081 C 1493.416 205.721, 1493.690 205.747, 1442.250 205.285 L 1395 204.861 1394.994 162.680 C 1394.990 131.012, 1394.629 118.132, 1393.545 111 C 1389.478 84.219, 1377.878 60.252, 1359.043 39.716 C 1343.660 22.945, 1318.449 8.981, 1291.500 2.305 C 1284.902 0.671, 1251.031 0.563, 701 0.432 C 380.075 0.356, 116.150 0.469, 114.500 0.685 M 122.500 51.680 C 110.734 52.715, 95.237 58.313, 85.325 65.109 C 69.898 75.686, 58.514 92.211, 53.368 111.500 C 51.552 118.305, 51.500 139.102, 51.500 857 C 51.500 1570.077, 51.563 1595.770, 53.337 1603.332 C 54.347 1607.640, 57.455 1615.723, 60.244 1621.295 C 71.374 1643.526, 93.533 1659.339, 118.644 1662.969 C 122.415 1663.514, 143.160 1663.969, 164.743 1663.980 L 203.987 1664 204.259 990.750 L 204.531 317.500 206.785 307.756 C 212.943 281.130, 224.847 259.651, 243.539 241.440 C 260.722 224.698, 280.989 213.736, 306.676 207.287 C 313.061 205.684, 346.628 205.540, 828.500 205.037 L 1343.500 204.500 1343.413 161.500 C 1343.330 120.749, 1343.213 118.082, 1341.169 110.500 C 1338.459 100.450, 1332.438 88.209, 1326.549 80.778 C 1316.985 68.709, 1299.776 57.596, 1284 53.302 C 1277.820 51.619, 1249.208 51.527, 702 51.430 C 385.475 51.374, 124.700 51.487, 122.500 51.680 M 0.497 857.500 C 0.497 1265.050, 0.611 1431.625, 0.750 1227.668 C 0.889 1023.710, 0.889 690.260, 0.750 486.668 C 0.611 283.075, 0.497 449.950, 0.497 857.500 M 323.925 256.981 C 315.618 258.051, 304.329 261.705, 297 265.694 C 278.942 275.523, 266.782 290.067, 259.721 310.280 L 256.500 319.500 256.500 1062.500 C 256.500 1786.600, 256.548 1805.653, 258.378 1811.500 C 266.802 1838.416, 285.690 1857.328, 312.500 1865.692 L 321.500 1868.500 900 1868.500 C 1378.473 1868.500, 1479.624 1868.269, 1485 1867.165 C 1516.321 1860.734, 1540.950 1835.473, 1546.587 1804 C 1548.607 1792.721, 1548.587 332.115, 1546.567 321 C 1543.625 304.819, 1537.747 293.261, 1526.160 280.876 C 1514.076 267.959, 1497.839 259.475, 1480.617 257.080 C 1471.744 255.845, 333.489 255.748, 323.925 256.981 M 648.498 465.250 L 560.500 553.500 648.750 465.502 C 697.288 417.103, 737 377.391, 737 377.252 C 737 377.113, 736.887 377, 736.748 377 C 736.609 377, 696.897 416.712, 648.498 465.250 M 1107 490.500 C 1150.172 533.675, 1185.720 569, 1185.995 569 C 1186.270 569, 1151.172 533.675, 1108 490.500 C 1064.828 447.325, 1029.280 412, 1029.005 412 C 1028.730 412, 1063.828 447.325, 1107 490.500 M 694.499 492.001 L 616.503 570.002 695.501 648.751 L 774.498 727.500 696.002 648.750 L 617.505 570 695.500 492 C 738.397 449.100, 773.270 414, 772.995 414 C 772.720 414, 737.397 449.100, 694.499 492.001 M 1153.998 674.750 L 1064.500 764.500 1154.250 675.002 C 1203.612 625.778, 1244 585.391, 1244 585.252 C 1244 585.113, 1243.887 585, 1243.748 585 C 1243.609 585, 1203.222 625.388, 1153.998 674.750 M 647.750 932.750 C 787.588 932.890, 1016.413 932.890, 1156.250 932.750 C 1296.088 932.610, 1181.675 932.496, 902 932.496 C 622.325 932.496, 507.913 932.610, 647.750 932.750 M 647.332 1045.750 C 787.489 1045.890, 1016.539 1045.890, 1156.332 1045.750 C 1296.124 1045.610, 1181.450 1045.496, 901.500 1045.496 C 621.550 1045.496, 507.174 1045.610, 647.332 1045.750 M 647.332 1096.750 C 787.489 1096.890, 1016.539 1096.890, 1156.332 1096.750 C 1296.124 1096.610, 1181.450 1096.496, 901.500 1096.496 C 621.550 1096.496, 507.174 1096.610, 647.332 1096.750 M 647.750 1209.750 C 787.588 1209.890, 1016.413 1209.890, 1156.250 1209.750 C 1296.088 1209.610, 1181.675 1209.496, 902 1209.496 C 622.325 1209.496, 507.913 1209.610, 647.750 1209.750" stroke="none" fill="#249ecf" fill-rule="evenodd"/></svg>