<?xml version="1.0" encoding="UTF-8" standalone="no"?>
<svg
   version="1.0"
   width="500.000000pt"
   height="357.000000pt"
   viewBox="0 0 500.000000 357.000000"
   preserveAspectRatio="xMidYMid meet"
   id="svg12"
   sodipodi:docname="blog.svg"
   inkscape:version="1.3.2 (091e20e, 2023-11-25)"
   xmlns:inkscape="http://www.inkscape.org/namespaces/inkscape"
   xmlns:sodipodi="http://sodipodi.sourceforge.net/DTD/sodipodi-0.dtd"
   xmlns="http://www.w3.org/2000/svg"
   xmlns:svg="http://www.w3.org/2000/svg">
  <defs
     id="defs12" />
  <sodipodi:namedview
     id="namedview12"
     pagecolor="#ffffff"
     bordercolor="#000000"
     borderopacity="0.25"
     inkscape:showpageshadow="2"
     inkscape:pageopacity="0.0"
     inkscape:pagecheckerboard="0"
     inkscape:deskcolor="#d1d1d1"
     inkscape:document-units="pt"
     inkscape:zoom="2.6398108"
     inkscape:cx="333.92545"
     inkscape:cy="237.89584"
     inkscape:window-width="2560"
     inkscape:window-height="1387"
     inkscape:window-x="1536"
     inkscape:window-y="25"
     inkscape:window-maximized="1"
     inkscape:current-layer="g31" />
  <g
     id="g31"
     inkscape:label="blog">
    <g
       transform="matrix(0.1,0,0,-0.1,0,357)"
       fill="#000000"
       stroke="none"
       id="g12"
       inkscape:label="border"
       style="display:inline"
       sodipodi:insensitive="true">
      <path
         style="display:inline;opacity:1;fill:#ffffff;fill-opacity:1;stroke:#d8d8d8;stroke-width:0.378815;stroke-opacity:1"
         d="m 319.56014,444.09327 -264.572622,-0.32018 -3.06019,-1.75468 c -5.239951,-3.00454 -8.386866,-5.3735 -11.661458,-8.77863 -3.519717,-3.66004 -5.683635,-6.74076 -8.741026,-12.44441 L 29.461468,416.94608 29.219483,297.87339 C 29.086391,232.38341 28.869994,168.1039 28.738601,155.03005 L 28.499705,131.25941 H 333.90082 639.30195 l -0.21471,54.64406 c -0.11808,30.05424 -0.31184,94.09046 -0.4306,142.3027 l -0.21589,87.65864 -2.2938,4.58282 c -3.11132,6.21608 -5.47137,9.51365 -9.59936,13.4126 -3.82827,3.61588 -7.21328,5.76824 -13.73591,8.73403 l -4.27803,1.94517 -12.20042,-0.063 c -6.71026,-0.0346 -131.25816,-0.20707 -276.77309,-0.38317 z"
         id="path79"
         transform="matrix(7.5,0,0,-7.5,0,3570)" />
      <path
         style="display:inline;opacity:1;fill:#ffffff;fill-opacity:1;stroke:#d8d8d8;stroke-width:0.378815;stroke-opacity:1"
         d="m 28.775172,104.07943 c 0.399683,-20.518601 0.952633,-37.157153 1.362209,-40.989596 0.8103,-7.582052 2.403831,-11.792099 6.336615,-16.741093 4.646249,-5.846816 11.606841,-11.113309 18.014393,-13.629974 2.737087,-1.075033 3.764618,-1.257892 8.963128,-1.595076 3.83801,-0.248939 99.418293,-0.391031 275.966743,-0.410258 l 270.09512,-0.02942 4.1623,2.02361 c 4.92926,2.396469 9.40897,5.282116 12.39438,7.983928 4.65529,4.213081 9.80578,12.632249 11.31372,18.493888 0.92174,3.582762 1.32063,12.769835 1.70266,39.21176 l 0.26135,18.088421 H 333.94066 28.533511 Z"
         id="path80"
         transform="matrix(7.5,0,0,-7.5,0,3570)" />
      <path
         d="M 389,3417 C 285,3388 190,3305 142,3202 l -27,-57 V 1770 395 l 27,-56 C 181,261 278,169 354,141 l 58,-22 2096,1 h 2095 l 54,25 c 73,33 156,114 193,188 l 30,60 v 1376 1376 l -28,60 c -46,97 -163,197 -245,209 -18,3 -963,7 -2102,10 -1664,5 -2079,3 -2116,-7 z m 4222,-113 c 66,-31 114,-78 146,-142 28,-56 28,-60 31,-269 l 4,-213 H 2500 208 l 4,218 c 5,242 9,259 75,333 38,42 96,77 148,90 17,4 953,6 2080,6 l 2050,-2 z m 177,-1801 -3,-1068 -24,-49 c -32,-64 -82,-113 -146,-142 l -52,-24 -2079,2 -2079,3 -46,27 c -52,31 -89,71 -122,132 l -22,41 -3,1073 -3,1072 h 2291 2290 z"
         id="path1"
         style="display:inline" />
      <path
         d="m 691,3215 c -55,-17 -116,-76 -137,-132 -25,-64 -16,-152 22,-206 36,-52 119,-97 178,-97 92,0 173,49 207,124 22,49 25,143 5,190 -20,47 -81,102 -134,120 -55,19 -83,19 -141,1 z m 135,-114 c 63,-38 69,-138 13,-185 -41,-35 -72,-41 -116,-25 -51,20 -78,60 -77,115 2,92 100,144 180,95 z"
         id="path2" />
      <path
         d="m 1289,3217 c -51,-19 -94,-52 -118,-90 -127,-207 101,-436 308,-310 85,52 125,177 85,271 -43,103 -176,166 -275,129 z m 147,-128 c 63,-60 42,-172 -39,-198 -133,-44 -217,136 -98,213 36,23 104,16 137,-15 z"
         id="path3" />
      <path
         d="m 1886,3216 c -140,-52 -195,-205 -121,-332 60,-102 210,-134 312,-67 107,69 134,217 59,316 -60,78 -167,114 -250,83 z m 124,-111 c 42,-22 60,-53 60,-106 0,-89 -87,-141 -167,-101 -44,23 -63,56 -63,108 0,86 92,140 170,99 z"
         id="path4" />
      <path
         d="m 4207,3218 c -12,-10 -17,-32 -19,-88 l -3,-75 -78,-5 c -79,-5 -96,-14 -97,-51 0,-34 33,-49 108,-49 h 72 v -73 c 0,-78 9,-97 46,-97 36,0 54,36 54,107 v 63 h 69 c 91,0 120,26 91,81 -9,16 -22,19 -85,19 h -75 v 70 c 0,57 -4,74 -20,90 -23,23 -39,25 -63,8 z"
         id="path5" />
      <path
         d="m 3332,2267 c -44,-14 -118,-80 -145,-131 -20,-38 -22,-54 -22,-226 0,-208 7,-239 63,-302 91,-101 238,-116 344,-35 74,56 117,162 97,238 -21,82 -89,128 -204,136 -65,5 -75,3 -94,-16 -46,-46 -10,-91 74,-91 99,0 140,-40 116,-113 -21,-62 -74,-97 -150,-97 -58,0 -104,32 -127,87 -17,40 -19,317 -3,360 16,43 59,82 103,94 77,21 168,-39 181,-119 9,-53 18,-67 49,-70 39,-5 56,14 56,62 0,86 -64,176 -155,217 -44,21 -130,23 -183,6 z"
         id="path6" />
      <path
         d="m 1352,2234 c -22,-15 -22,-17 -22,-343 0,-271 2,-331 14,-340 10,-9 80,-11 249,-9 262,3 264,4 315,79 21,31 23,43 20,125 -3,80 -6,95 -30,126 -15,19 -41,41 -58,48 -25,10 -29,16 -23,34 5,11 8,55 8,96 0,91 -25,139 -89,173 -37,20 -57,22 -201,24 -132,2 -165,0 -183,-13 z m 346,-114 c 18,-17 22,-32 22,-80 0,-51 -3,-61 -26,-79 -24,-19 -40,-21 -145,-21 h -119 v 100 100 h 123 c 110,0 126,-2 145,-20 z m 109,-303 c 13,-13 18,-34 18,-78 0,-96 -7,-99 -221,-99 h -174 v 101 100 l 180,-3 c 156,-3 182,-5 197,-21 z"
         id="path7" />
      <path
         d="m 2746,2236 c -21,-8 -54,-29 -72,-47 -60,-58 -64,-76 -64,-292 0,-217 5,-244 58,-299 44,-46 87,-61 161,-56 68,5 121,40 154,102 21,38 22,54 22,246 0,190 -2,208 -21,245 -25,45 -45,66 -90,89 -47,23 -104,28 -148,12 z m 125,-125 29,-29 v -182 c 0,-197 -6,-226 -55,-248 -40,-18 -62,-15 -97,17 l -33,29 -3,176 c -3,145 -1,181 13,209 29,63 98,75 146,28 z"
         id="path8" />
      <path
         d="m 2102,2228 c -17,-17 -17,-659 0,-676 8,-8 60,-12 168,-12 164,0 180,4 180,45 0,45 -28,55 -148,55 h -112 v 288 c 0,308 -1,312 -50,312 -14,0 -31,-5 -38,-12 z"
         id="path9" />
      <path
         d="m 1402,1313 c -13,-25 -6,-55 14,-70 14,-10 208,-13 941,-13 h 923 l 16,25 c 14,21 15,31 6,50 l -12,25 h -939 c -885,0 -941,-1 -949,-17 z"
         id="path10" />
      <path
         d="m 1408,953 c -17,-20 -16,-46 2,-69 11,-12 96,-14 609,-12 l 596,3 9,28 c 7,19 7,33 0,45 -10,16 -59,17 -606,20 -557,2 -596,1 -610,-15 z"
         id="path11"
         style="display:inline" />
      <path
         d="m 1413,598 c -19,-25 -21,-46 -7,-67 15,-21 16,-21 609,-21 577,0 595,1 605,19 14,27 13,47 -6,65 -14,14 -82,16 -603,16 -459,0 -591,-3 -598,-12 z"
         id="path12"
         style="display:inline" />
    </g>
  </g>
</svg>
