<svg xmlns="http://www.w3.org/2000/svg" width="600" height="600" viewBox="0 0 600 600" version="1.1">
<!-- modified from Nigar Novruzova, https://www.vecteezy.com/members/iconvector -->
<path d="M 416 54.654 C 410.233 55.591, 408.860 56.184, 405.369 59.249 C 399.168 64.693, 399 65.717, 399 97.968 C 399 117.121, 398.651 127, 397.975 127 C 397.412 127, 380.199 112.497, 359.725 94.772 C 339.251 77.046, 320.250 61.330, 317.500 59.848 C 307.121 54.253, 293.904 53.921, 283.196 58.985 C 277.614 61.625, 261.999 74.934, 102 213.422 C 91.825 222.230, 73.600 237.958, 61.500 248.374 C 31.655 274.067, 26.732 278.978, 23.417 286.363 C 14.213 306.874, 25.396 331.408, 46.784 337.626 C 54.646 339.911, 65.858 339.138, 73.020 335.815 C 76.215 334.333, 83.920 328.577, 91.500 322.008 L 104.500 310.743 105.015 414.622 C 105.497 511.815, 105.648 518.854, 107.361 524 C 112.519 539.501, 123.942 553.056, 137.084 559.274 C 150.117 565.439, 150.761 565.500, 202.336 565.500 L 249.171 565.500 251.586 562.694 L 254 559.888 254.015 476.694 C 254.026 412.656, 254.314 392.947, 255.265 391.096 C 255.944 389.774, 257.770 387.749, 259.321 386.596 C 262.031 384.583, 263.455 384.488, 295.321 384.186 C 313.570 384.014, 330.498 384.166, 332.940 384.526 C 336.093 384.990, 338.339 386.139, 340.690 388.490 L 344 391.800 344 475.789 C 344 570.150, 343.412 563.151, 351.500 565.025 C 356.794 566.252, 431.958 566.233, 443.640 565.002 C 448.713 564.468, 455.859 562.898, 459.700 561.474 C 474.904 555.839, 487.873 542.213, 493.571 525.889 L 496.500 517.500 496.790 415.221 L 497.080 312.942 508.724 323.111 C 524.074 336.516, 528.301 338.500, 541.500 338.500 C 550.525 338.500, 552.080 338.215, 557.446 335.581 C 565.298 331.725, 571.432 325.420, 575.326 317.201 C 578.169 311.198, 578.498 309.562, 578.477 301.500 C 578.450 291.269, 576.044 284.536, 569.920 277.562 C 568.062 275.446, 548.533 258.184, 526.521 239.203 C 504.510 220.221, 484.587 202.867, 482.250 200.637 L 478 196.584 478 132.857 C 478 90.262, 477.647 68.197, 476.936 66.315 C 475.616 62.821, 471.460 58.351, 467.500 56.166 C 464.975 54.773, 460.858 54.490, 441.500 54.379 C 428.850 54.307, 417.375 54.430, 416 54.654 M 415.685 71.648 C 415.308 72.025, 415 89.618, 415 110.744 L 415 149.154 412.077 152.077 C 408.667 155.487, 406.625 155.704, 402.500 153.095 C 400.850 152.051, 379.925 134.216, 356 113.461 C 332.075 92.706, 310.700 74.897, 308.500 73.885 C 303.325 71.503, 295.006 71.467, 290.167 73.805 C 288.112 74.798, 266.197 93.143, 241.466 114.572 C 216.734 136.001, 161.755 183.583, 119.288 220.309 C 76.822 257.035, 41.176 288.348, 40.076 289.894 C 33.008 299.819, 37.033 314.684, 48.439 320.780 C 52.487 322.944, 62.530 322.945, 66.500 320.782 C 68.150 319.883, 78.682 311.239, 89.905 301.574 C 106.968 286.878, 110.817 284.005, 113.405 284.032 C 116.886 284.068, 119.124 285.469, 120.837 288.684 C 121.701 290.307, 122 319.609, 122 402.753 C 122 527.490, 121.567 519.631, 129.060 530.851 C 133.565 537.598, 140.427 543.134, 148.281 546.358 C 153.287 548.413, 155.223 548.512, 195.750 548.800 L 238 549.100 238.010 469.300 L 238.020 389.500 240.358 384.500 C 243.388 378.022, 250.299 371.726, 256.719 369.593 C 261.183 368.111, 266.427 367.947, 301.140 368.206 C 339.799 368.495, 340.575 368.540, 344.723 370.757 C 350.419 373.800, 355.143 378.701, 358.072 384.605 L 360.500 389.500 360.784 469.250 L 361.068 549 402.324 549 C 446.885 549, 450.651 548.639, 459.340 543.535 C 464.191 540.686, 471.782 533.036, 474.810 527.943 C 480.090 519.063, 480 521.227, 480 402.512 C 480 303.210, 480.157 292.221, 481.601 290.159 C 483.553 287.373, 487.558 285.725, 490.280 286.589 C 491.389 286.941, 500.332 294.160, 510.153 302.632 C 530.176 319.904, 532.713 321.684, 538.539 322.558 C 546.973 323.823, 556.620 318.535, 560.397 310.575 C 562.643 305.844, 562.466 296.834, 560.035 292.068 C 558.626 289.306, 544.620 276.572, 510.535 247.062 C 484.391 224.427, 462.895 205.816, 462.768 205.704 C 462.640 205.592, 462.302 175.350, 462.018 138.500 L 461.500 71.500 438.935 71.232 C 426.524 71.084, 416.062 71.272, 415.685 71.648" stroke="none" fill="#333333" fill-rule="evenodd"/><path d="M 398.441 99 C 398.441 114.675, 398.579 121.087, 398.748 113.250 C 398.917 105.412, 398.917 92.587, 398.748 84.750 C 398.579 76.912, 398.441 83.325, 398.441 99 M 415.685 71.648 C 415.308 72.025, 415 89.618, 415 110.744 L 415 149.154 412.077 152.077 C 408.667 155.487, 406.625 155.704, 402.500 153.095 C 400.850 152.051, 379.925 134.216, 356 113.461 C 332.075 92.706, 310.700 74.897, 308.500 73.885 C 303.325 71.503, 295.006 71.467, 290.167 73.805 C 288.112 74.798, 266.197 93.143, 241.466 114.572 C 216.734 136.001, 161.755 183.583, 119.288 220.309 C 76.822 257.035, 41.176 288.348, 40.076 289.894 C 33.008 299.819, 37.033 314.684, 48.439 320.780 C 52.487 322.944, 62.530 322.945, 66.500 320.782 C 68.150 319.883, 78.682 311.239, 89.905 301.574 C 106.968 286.878, 110.817 284.005, 113.405 284.032 C 116.886 284.068, 119.124 285.469, 120.837 288.684 C 121.701 290.307, 122 319.609, 122 402.753 C 122 527.490, 121.567 519.631, 129.060 530.851 C 133.565 537.598, 140.427 543.134, 148.281 546.358 C 153.287 548.413, 155.223 548.512, 195.750 548.800 L 238 549.100 238.010 469.300 L 238.020 389.500 240.358 384.500 C 243.388 378.022, 250.299 371.726, 256.719 369.593 C 261.183 368.111, 266.427 367.947, 301.140 368.206 C 339.799 368.495, 340.575 368.540, 344.723 370.757 C 350.419 373.800, 355.143 378.701, 358.072 384.605 L 360.500 389.500 360.784 469.250 L 361.068 549 402.324 549 C 446.885 549, 450.651 548.639, 459.340 543.535 C 464.191 540.686, 471.782 533.036, 474.810 527.943 C 480.090 519.063, 480 521.227, 480 402.512 C 480 303.210, 480.157 292.221, 481.601 290.159 C 483.553 287.373, 487.558 285.725, 490.280 286.589 C 491.389 286.941, 500.332 294.160, 510.153 302.632 C 530.176 319.904, 532.713 321.684, 538.539 322.558 C 546.973 323.823, 556.620 318.535, 560.397 310.575 C 562.643 305.844, 562.466 296.834, 560.035 292.068 C 558.626 289.306, 544.620 276.572, 510.535 247.062 C 484.391 224.427, 462.895 205.816, 462.768 205.704 C 462.640 205.592, 462.302 175.350, 462.018 138.500 L 461.500 71.500 438.935 71.232 C 426.524 71.084, 416.062 71.272, 415.685 71.648 M 478.471 134 C 478.471 168.925, 478.596 183.212, 478.749 165.750 C 478.903 148.287, 478.903 119.712, 478.749 102.250 C 478.596 84.787, 478.471 99.075, 478.471 134 M 30.946 274.750 L 27.500 278.500 31.250 275.054 C 33.313 273.158, 35 271.471, 35 271.304 C 35 270.540, 34.154 271.260, 30.946 274.750 M 281.750 384.748 C 291.238 384.913, 306.762 384.913, 316.250 384.748 C 325.738 384.584, 317.975 384.450, 299 384.450 C 280.025 384.450, 272.262 384.584, 281.750 384.748" stroke="none" fill="#ffffff" fill-rule="evenodd"/></svg>