<svg xmlns="http://www.w3.org/2000/svg" width="1024" height="1024" viewBox="0 0 1024 1024" version="1.1">
<!--modified from work of
- Eureka Design, https://www.vecteezy.com/members/eureka_design
- Diana Johanna Velasquez, https://www.vecteezy.com/members/djvstock
-->
<path d="M 591.750 5.723 C 593.538 5.945, 596.462 5.945, 598.250 5.723 C 600.038 5.502, 598.575 5.320, 595 5.320 C 591.425 5.320, 589.962 5.502, 591.750 5.723 M 590.776 84.733 C 593.128 84.945, 596.728 84.942, 598.776 84.727 C 600.824 84.512, 598.900 84.339, 594.500 84.343 C 590.100 84.346, 588.424 84.522, 590.776 84.733 M 684.083 107.346 C 684.313 107.537, 689.900 110.453, 696.500 113.826 C 703.100 117.199, 707.600 119.256, 706.500 118.396 C 703.176 115.799, 681.251 104.991, 684.083 107.346 M 515.971 119.750 L 509.500 126.500 516.250 120.029 C 522.520 114.018, 523.457 113, 522.721 113 C 522.568 113, 519.530 116.037, 515.971 119.750 M 748.995 155.867 C 750.264 157.718, 752.576 161.543, 754.133 164.367 C 755.690 167.190, 756.972 169.024, 756.982 168.441 C 757.006 167.029, 750.301 155.897, 748.284 154 C 747.406 153.175, 747.727 154.015, 748.995 155.867 M 763.360 204 C 763.360 209.225, 763.529 211.363, 763.735 208.750 C 763.941 206.137, 763.941 201.863, 763.735 199.250 C 763.529 196.637, 763.360 198.775, 763.360 204 M 343.500 553.742 C 510.342 554.411, 732.690 554.424, 731.655 553.765 C 731.020 553.361, 629.025 553.133, 505 553.258 C 380.975 553.383, 308.300 553.601, 343.500 553.742 M 228.487 772.500 C 228.487 856.650, 228.606 890.927, 228.750 848.671 C 228.894 806.416, 228.894 737.566, 228.750 695.671 C 228.605 653.777, 228.487 688.350, 228.487 772.500 M 498.500 677.892 C 489.247 680.590, 482.153 684.687, 475.241 691.324 C 464.101 702.021, 459 713.889, 459 729.111 C 459 741.128, 461.543 749.655, 468.013 759.327 C 479.747 776.871, 499.580 785.382, 521.013 782.071 C 549.580 777.658, 570.732 747.635, 564.887 719.799 C 558.573 689.727, 526.767 669.650, 498.500 677.892 M 497 812.478 C 470.016 816.934, 451.195 826.720, 432.693 845.913 C 416.974 862.219, 408.243 878.698, 403.506 901 C 402.747 904.575, 402.460 907.840, 402.867 908.254 C 403.275 908.669, 452.634 908.894, 512.554 908.754 L 621.500 908.500 621.260 905 C 620.396 892.422, 611.983 872.184, 601.515 857.500 C 594.253 847.315, 590.423 843.311, 580.422 835.451 C 564.088 822.614, 548.064 815.759, 526.757 812.493 C 515.420 810.756, 507.452 810.752, 497 812.478 M 420.829 1016.750 C 467.760 1016.894, 544.260 1016.894, 590.829 1016.750 C 637.398 1016.606, 599 1016.489, 505.500 1016.489 C 412 1016.489, 373.898 1016.606, 420.829 1016.750" stroke="none" fill="#ffffff" fill-rule="evenodd"/><path d="M 569.961 7.398 C 541.186 11.803, 519.019 20.326, 494.500 36.414 C 470.364 52.251, 448.523 73.883, 432.320 98 C 413.404 126.154, 395.624 162.193, 379.677 204.705 C 366.043 241.051, 364.500 246.319, 364.500 256.521 C 364.500 264.699, 364.807 266.167, 367.785 272.216 C 375.437 287.757, 389.798 295.999, 407.072 294.763 C 415.417 294.166, 422.761 290.819, 429.992 284.317 C 436.340 278.609, 437.788 275.776, 445.158 254.629 C 468.184 188.559, 490.985 145.209, 516 119.941 C 540.960 94.728, 570.806 82.343, 601.481 84.470 C 623.978 86.029, 645.366 91.287, 671.500 101.681 C 702.070 113.840, 723.390 127.219, 740.152 144.764 C 753.752 158.998, 759.588 170.346, 762.480 188.176 C 764.478 200.498, 764.387 207.809, 762.035 223.797 C 758.257 249.471, 756.242 254.988, 714.278 354.500 C 687.008 419.169, 675.395 446.350, 658.883 484.161 C 649.597 505.425, 642 523.088, 642 523.411 C 642 523.735, 661.251 524, 684.781 524 L 727.562 524 728.665 521.250 C 729.272 519.737, 737.740 500.050, 747.484 477.500 C 766.913 432.535, 810.280 329.804, 818.194 310 C 841.020 252.874, 847.366 209.422, 838.956 167.852 C 828.973 118.513, 795.612 77.819, 740.289 47.495 C 705.894 28.643, 669.367 15.409, 635 9.347 C 617.274 6.220, 584.142 5.228, 569.961 7.398 M 254.589 147.077 C 251.488 150.762, 251.188 155.688, 253.858 159.115 C 257.193 163.397, 286.279 207.073, 297.937 225.306 C 304.199 235.099, 310.250 243.762, 311.383 244.556 C 314.760 246.921, 319.579 246.348, 323.151 243.156 C 327.597 239.184, 327.345 235.852, 321.917 226.836 C 312.138 210.594, 269.963 148.116, 267.436 146.128 C 263.263 142.846, 257.810 143.248, 254.589 147.077 M 174.357 239.980 C 171.115 241.306, 169 245, 169 249.338 C 169 252.497, 169.647 253.821, 172.433 256.365 C 184.029 266.953, 257.591 305, 266.468 305 C 270.665 305, 275 300.047, 275 295.251 C 275 289.942, 272.865 288.175, 259 282.008 C 236.980 272.215, 197.157 250.928, 187 243.521 C 182.013 239.885, 177.609 238.651, 174.357 239.980 M 538.500 290.192 C 511.739 296.876, 475.811 307.548, 469.891 310.573 C 464.392 313.382, 463.728 322.068, 468.712 325.988 C 472.292 328.804, 475.024 328.547, 489.123 324.067 C 505.194 318.961, 524.022 313.702, 541.500 309.436 C 552.816 306.674, 555.931 305.528, 557.750 303.454 C 561.039 299.704, 560.765 294.611, 557.077 290.923 C 553.545 287.392, 550.236 287.261, 538.500 290.192 M 192.500 361.142 C 177.273 364.472, 173.408 364.984, 167.410 364.469 C 160.755 363.897, 160.127 364.022, 157.160 366.519 C 151.577 371.216, 153.366 379.584, 160.599 382.606 C 166.500 385.071, 176.434 384.267, 199.099 379.488 C 217.740 375.557, 220.790 374.647, 222.750 372.432 C 225.842 368.936, 225.707 363.993, 222.411 360.077 C 220.167 357.410, 219.201 357.014, 215.161 357.103 C 212.597 357.160, 202.400 358.977, 192.500 361.142 M 439.270 366.729 C 433.606 367.758, 430.823 377.823, 435.036 382.036 C 436.156 383.156, 441.894 386.340, 447.786 389.111 C 520.801 423.450, 520.024 423.149, 525.173 419.085 C 530.378 414.978, 529.695 407.612, 523.775 404.006 C 518.539 400.816, 446.757 367.348, 444 366.811 C 442.625 366.543, 440.496 366.506, 439.270 366.729 M 273.842 556.375 C 256.480 563.516, 243.423 575.751, 235.396 592.398 C 228.535 606.630, 228.909 594.836, 229.220 787 L 229.500 960.500 232.243 967.905 C 238.827 985.679, 252.137 1000.626, 268.412 1008.522 C 285.247 1016.691, 264.751 1016.072, 508.241 1015.770 L 725.500 1015.500 733.665 1012.423 C 745.285 1008.045, 752.253 1003.587, 760.925 994.985 C 769.724 986.255, 774.003 979.452, 778.365 967.261 L 781.500 958.500 781.778 787.500 C 782.091 595.050, 782.577 608.130, 774.502 591.412 C 766.950 575.774, 751.240 561.448, 735.627 555.960 C 730.150 554.035, 725.997 554, 504.775 554.024 L 279.500 554.047 273.842 556.375 M 498.500 677.892 C 489.247 680.590, 482.153 684.687, 475.241 691.324 C 464.101 702.021, 459 713.889, 459 729.111 C 459 741.128, 461.543 749.655, 468.013 759.327 C 479.747 776.871, 499.580 785.382, 521.013 782.071 C 549.580 777.658, 570.732 747.635, 564.887 719.799 C 558.573 689.727, 526.767 669.650, 498.500 677.892 M 497 812.478 C 470.016 816.934, 451.195 826.720, 432.693 845.913 C 416.974 862.219, 408.243 878.698, 403.506 901 C 402.747 904.575, 402.460 907.840, 402.867 908.254 C 403.275 908.669, 452.634 908.894, 512.554 908.754 L 621.500 908.500 621.260 905 C 620.396 892.422, 611.983 872.184, 601.515 857.500 C 594.253 847.315, 590.423 843.311, 580.422 835.451 C 564.088 822.614, 548.064 815.759, 526.757 812.493 C 515.420 810.756, 507.452 810.752, 497 812.478" stroke="none" fill="#000000" fill-rule="evenodd"/></svg>