<svg xmlns="http://www.w3.org/2000/svg" width="600" height="600" viewBox="0 0 600 600" version="1.1">
<!-- modified from Nigar Novruzova, https://www.vecteezy.com/members/iconvector -->
<path d="M 355 300.541 L 355 592.258 362.250 591.570 C 391.442 588.796, 424.274 583.882, 499.500 571.024 C 531.400 565.572, 562.338 560.345, 568.252 559.409 L 579.004 557.706 578.752 301.633 L 578.500 45.560 558 42.216 C 546.725 40.378, 498.125 32.382, 450 24.448 C 401.875 16.514, 360.813 9.753, 358.750 9.423 L 355 8.824 355 300.541 M 248.376 69.750 C 248.713 83.912, 249.273 131.569, 249.619 175.653 C 250.231 253.463, 250.195 255.820, 248.375 256.302 C 247.344 256.576, 252.575 256.732, 260 256.650 L 273.500 256.500 273.755 162.750 L 274.010 69 306.505 69 L 339 69 339 56.500 L 339 44 293.382 44 L 247.764 44 248.376 69.750 M 134.667 197.667 C 134.300 198.033, 134 210.071, 134 224.417 L 134 250.500 130.570 250.487 C 128.684 250.480, 126.809 250.142, 126.404 249.737 C 125.546 248.880, 119.596 248.738, 118.779 249.555 C 118.473 249.860, 96.123 250.073, 69.112 250.028 L 20 249.947 20 296.474 L 20 343 77 343 L 134 343 134 374 C 134 391.050, 134.257 405, 134.571 405 C 134.886 405, 135.711 404.438, 136.406 403.750 C 138.128 402.047, 140.572 400.300, 154.500 390.822 C 161.100 386.330, 166.725 382.372, 167 382.027 C 167.275 381.682, 169.975 379.901, 173 378.069 C 176.025 376.237, 178.725 374.439, 179 374.075 C 179.825 372.981, 192.164 365, 193.031 365 C 193.472 365, 193.983 364.618, 194.167 364.151 C 194.350 363.684, 199 360.217, 204.500 356.446 C 210 352.675, 214.725 349.329, 215 349.012 C 215.275 348.694, 217.975 346.889, 221 345 C 224.025 343.111, 226.725 341.281, 227 340.932 C 227.275 340.584, 229.422 339.095, 231.770 337.624 C 235.351 335.381, 259.295 318.721, 262.500 316.242 C 263.050 315.817, 265.975 313.910, 269 312.005 C 272.025 310.100, 275.070 307.994, 275.767 307.325 C 276.464 306.656, 278.826 305.102, 281.017 303.870 C 283.208 302.639, 284.991 301.152, 284.981 300.566 C 284.954 299.067, 278.641 292, 277.329 292 C 276.733 292, 275.646 291.278, 274.914 290.396 C 274.181 289.514, 272.664 288.390, 271.541 287.898 C 268.348 286.500, 265.574 284.616, 264.700 283.250 C 264.260 282.563, 263.071 282, 262.057 282 C 261.043 282, 259.952 281.318, 259.633 280.485 C 259.313 279.652, 257.915 278.538, 256.526 278.010 C 255.137 277.482, 254 276.588, 254 276.025 C 254 275.461, 253.148 275, 252.107 275 C 251.066 275, 249.955 274.325, 249.638 273.500 C 249.322 272.675, 248.257 272, 247.272 272 C 246.287 272, 244.927 271.113, 244.250 270.028 C 243.572 268.943, 242.380 268.301, 241.599 268.600 C 240.741 268.929, 239.921 268.326, 239.523 267.072 C 239.156 265.918, 238.009 265, 236.933 265 C 235.870 265, 235 264.536, 235 263.969 C 235 263.401, 234.213 262.637, 233.250 262.270 C 232.287 261.903, 230.380 260.567, 229.010 259.301 C 227.641 258.036, 225.953 257, 225.260 257 C 224.567 257, 224 256.559, 224 256.019 C 224 255.480, 222.908 254.764, 221.572 254.429 C 220.237 254.094, 218.899 253.178, 218.598 252.395 C 218.297 251.611, 217.027 250.528, 215.776 249.987 C 212.391 248.526, 209.601 246.658, 208.700 245.250 C 208.260 244.563, 207.131 244, 206.191 244 C 205.250 244, 203.896 243.062, 203.180 241.916 C 202.464 240.770, 201.311 240.050, 200.617 240.317 C 199.924 240.583, 198.822 239.945, 198.170 238.900 C 197.517 237.855, 196.360 237, 195.599 237 C 194.837 237, 193.955 236.325, 193.638 235.500 C 193.322 234.675, 192.257 234, 191.272 234 C 190.287 234, 188.927 233.113, 188.250 232.028 C 187.572 230.943, 186.380 230.301, 185.599 230.600 C 184.741 230.929, 183.921 230.326, 183.523 229.072 C 183.161 227.933, 182.044 227, 181.040 227 C 180.036 227, 178.955 226.325, 178.638 225.500 C 178.322 224.675, 177.257 224, 176.272 224 C 175.287 224, 173.927 223.113, 173.250 222.028 C 172.572 220.943, 171.380 220.301, 170.599 220.600 C 169.741 220.929, 168.921 220.326, 168.523 219.072 C 168.152 217.903, 167.010 217, 165.901 217 C 164.821 217, 163.678 216.325, 163.362 215.500 C 163.045 214.675, 162.111 214, 161.287 214 C 160.462 214, 158.903 212.875, 157.821 211.500 C 156.740 210.125, 155.213 209, 154.427 209 C 153.642 209, 153 208.580, 153 208.067 C 153 207.554, 151.988 206.815, 150.750 206.424 C 149.512 206.034, 147.825 204.960, 147 204.038 C 146.175 203.116, 144.825 202.050, 144 201.670 C 143.175 201.289, 141.150 200.116, 139.500 199.062 C 136.086 196.881, 135.594 196.740, 134.667 197.667 M 382.379 292.437 C 380.663 293.184, 377.963 295.493, 376.379 297.570 C 373.928 300.784, 373.500 302.258, 373.500 307.500 C 373.500 312.743, 373.927 314.216, 376.382 317.434 C 377.967 319.512, 380.765 321.839, 382.600 322.606 C 389.643 325.549, 396.943 323.564, 401.618 317.434 C 404.073 314.216, 404.500 312.743, 404.500 307.500 C 404.500 302.257, 404.073 300.784, 401.618 297.566 C 396.950 291.446, 389.326 289.413, 382.379 292.437 M 248.381 389.250 C 248.716 403.688, 249.272 451.006, 249.617 494.402 L 250.245 573.304 266.782 572.652 C 275.878 572.293, 295.848 572, 311.160 572 L 339 572 339 560.500 L 339 549 306.500 549 L 274 549 274 456 L 274 363 260.887 363 L 247.773 363 248.381 389.250" stroke="none" fill="#000000" fill-rule="evenodd"/><path d="M 351 300.500 C 351 591.333, 351.005 592, 353 592 C 354.995 592, 355 591.333, 355 300.500 C 355 9.667, 354.995 9, 353 9 C 351.005 9, 351 9.667, 351 300.500 M 244.391 140.250 C 244.744 193.188, 245.299 240.887, 245.624 246.250 C 246.165 255.167, 246.388 256, 248.234 256 C 250.246 256, 250.250 255.779, 249.620 175.750 C 249.273 131.613, 248.713 83.912, 248.376 69.750 C 247.784 44.838, 247.699 44, 245.756 44 C 243.756 44, 243.751 44.332, 244.391 140.250 M 274 71 C 274 72.959, 274.667 73, 306.500 73 C 338.333 73, 339 72.959, 339 71 C 339 69.041, 338.333 69, 306.500 69 C 274.667 69, 274 69.041, 274 71 M 44.819 249.749 C 57.644 249.908, 78.344 249.907, 90.819 249.749 C 103.293 249.590, 92.800 249.461, 67.500 249.461 C 42.200 249.461, 31.993 249.591, 44.819 249.749 M 115.346 250.134 C 116.670 250.903, 117.505 250.895, 118.296 250.104 C 119.101 249.299, 118.601 249.008, 116.450 249.030 C 113.864 249.057, 113.728 249.193, 115.346 250.134 M 126.704 250.104 C 127.495 250.895, 128.330 250.903, 129.654 250.134 C 131.272 249.193, 131.136 249.057, 128.550 249.030 C 126.399 249.008, 125.899 249.299, 126.704 250.104 M 382.379 292.437 C 380.663 293.184, 377.963 295.493, 376.379 297.570 C 373.928 300.784, 373.500 302.258, 373.500 307.500 C 373.500 312.743, 373.927 314.216, 376.382 317.434 C 377.967 319.512, 380.765 321.839, 382.600 322.606 C 389.643 325.549, 396.943 323.564, 401.618 317.434 C 404.073 314.216, 404.500 312.743, 404.500 307.500 C 404.500 302.257, 404.073 300.784, 401.618 297.566 C 396.950 291.446, 389.326 289.413, 382.379 292.437 M 285 300.816 C 285 301.265, 283.208 302.639, 281.017 303.870 C 278.826 305.102, 276.464 306.656, 275.767 307.325 C 275.070 307.994, 272.025 310.100, 269 312.005 C 265.975 313.910, 263.050 315.817, 262.500 316.242 C 259.295 318.721, 235.351 335.381, 231.770 337.624 C 229.422 339.095, 227.275 340.584, 227 340.932 C 226.725 341.281, 224.025 343.111, 221 345 C 217.975 346.889, 215.275 348.694, 215 349.012 C 214.725 349.329, 210 352.675, 204.500 356.446 C 199 360.217, 194.350 363.684, 194.167 364.151 C 193.983 364.618, 193.472 365, 193.031 365 C 192.164 365, 179.825 372.981, 179 374.075 C 178.725 374.439, 176.025 376.237, 173 378.069 C 169.975 379.901, 167.275 381.682, 167 382.027 C 166.725 382.372, 161.100 386.330, 154.500 390.822 C 133.508 405.108, 133.455 405.155, 135.188 407.930 C 137.590 411.775, 140.808 411.459, 146.474 406.820 C 149.430 404.401, 166.209 393, 166.814 393 C 167.203 393, 168.652 391.988, 170.034 390.750 C 171.417 389.512, 176.587 385.800, 181.524 382.500 C 186.461 379.200, 190.650 376.163, 190.833 375.750 C 191.017 375.337, 191.767 375, 192.500 375 C 193.233 375, 193.983 374.663, 194.167 374.250 C 194.350 373.837, 196.300 372.292, 198.500 370.816 C 200.700 369.340, 206.100 365.605, 210.500 362.517 C 214.900 359.429, 220.300 355.732, 222.500 354.302 C 224.700 352.871, 226.650 351.318, 226.833 350.851 C 227.017 350.383, 227.598 350, 228.126 350 C 228.654 350, 231.522 348.200, 234.500 346 C 237.478 343.800, 240.384 342, 240.957 342 C 241.531 342, 242.001 341.663, 242.002 341.250 C 242.003 340.837, 244.140 339.152, 246.752 337.504 C 251.334 334.612, 272.241 320.021, 274.708 317.993 C 275.372 317.447, 276.179 317, 276.500 317 C 276.822 317, 279.522 315.200, 282.500 313 C 285.478 310.800, 288.219 309, 288.590 309 C 288.961 309, 290.107 308.030, 291.135 306.844 C 292.987 304.709, 292.972 304.666, 289.556 302.344 C 285.846 299.824, 285 299.540, 285 300.816 M 20 346.500 L 20 350 77 350 L 134 350 134 346.500 L 134 343 77 343 L 20 343 20 346.500 M 244.391 460.250 C 244.744 513.737, 245.299 561.888, 245.624 567.250 L 246.216 577 287.358 576.991 C 334.295 576.981, 339 576.682, 339 573.708 C 339 571.711, 338.618 571.699, 294.620 572.248 L 250.240 572.802 249.615 494.151 C 249.271 450.893, 248.716 403.688, 248.381 389.250 C 247.792 363.815, 247.711 363, 245.761 363 C 243.754 363, 243.750 363.256, 244.391 460.250" stroke="none" fill="#ffffff" fill-rule="evenodd"/></svg>