<?xml version="1.0" encoding="UTF-8" standalone="no"?>
<!-- converted from jpg by Tayyab Abbas https://www.vecteezy.com/members/107376287158572935852 -->

<svg
   version="1.0"
   width="1920.000000pt"
   height="1920.000000pt"
   viewBox="0 0 1920.000000 1920.000000"
   preserveAspectRatio="xMidYMid meet"
   id="svg3"
   sodipodi:docname="user-profile.svg"
   inkscape:version="1.3.2 (091e20e, 2023-11-25)"
   xmlns:inkscape="http://www.inkscape.org/namespaces/inkscape"
   xmlns:sodipodi="http://sodipodi.sourceforge.net/DTD/sodipodi-0.dtd"
   xmlns="http://www.w3.org/2000/svg"
   xmlns:svg="http://www.w3.org/2000/svg">
  <defs
     id="defs3" />
  <sodipodi:namedview
     id="namedview3"
     pagecolor="#ffffff"
     bordercolor="#000000"
     borderopacity="0.25"
     inkscape:showpageshadow="2"
     inkscape:pageopacity="0.0"
     inkscape:pagecheckerboard="0"
     inkscape:deskcolor="#d1d1d1"
     inkscape:document-units="pt"
     inkscape:zoom="0.45859375"
     inkscape:cx="1278.9097"
     inkscape:cy="1280"
     inkscape:window-width="2560"
     inkscape:window-height="1387"
     inkscape:window-x="1536"
     inkscape:window-y="25"
     inkscape:window-maximized="1"
     inkscape:current-layer="svg3" />
  <ellipse
     style="fill:#ffffff;stroke:#d8d8d8;stroke-width:0.75"
     id="path4"
     cx="960"
     cy="959.18225"
     rx="958.36462"
     ry="957.54688" />
  <g
     transform="translate(0.000000,1920.000000) scale(0.100000,-0.100000)"
     fill="#000000"
     stroke="none"
     id="g3">
    <path
       d="M9275 19194 c-33 -2 -141 -8 -240 -14 -607 -35 -1286 -138 -1857 -281 -1242 -311 -2398 -875 -3421 -1671 -270 -210 -536 -441 -797 -692 -1422 -1368 -2343 -3013 -2740 -4893 -110 -524 -170 -951 -206 -1468 -20 -303 -15 -1122 10 -1385 18 -192 84 -663 121 -865 284 -1535 868 -2891 1755 -4070 298 -395 561 -695 936 -1065 1023 -1008 2151 -1732 3434 -2203 69 -26 240 -75 380 -111 140 -35 323 -83 405 -106 480 -133 938 -237 1227 -280 441 -64 940 -94 1448 -87 491 8 611 17 1005 82 182 30 445 73 585 95 565 93 885 168 1310 311 1397 467 2647 1229 3674 2239 406 399 658 686 982 1116 582 773 1045 1644 1375 2581 286 816 454 1644 521 2573 16 229 16 972 0 1200 -82 1131 -315 2123 -737 3135 -139 334 -561 1147 -671 1293 -121 161 -297 252 -484 252 -279 -1 -536 -194 -605 -456 -20 -76 -21 -221 -1 -306 23 -98 53 -166 141 -318 112 -193 310 -584 406 -800 411 -929 636 -1825 711 -2835 18 -251 15 -891 -6 -1149 -34 -419 -77 -734 -152 -1106 -243 -1209 -731 -2307 -1460 -3280 -241 -323 -372 -474 -804 -932 -25 -27 -49 -48 -55 -48 -6 0 -36 75 -67 168 -312 928 -823 1757 -1503 2437 -1043 1044 -2411 1664 -3893 1765 -195 13 -604 13 -792 0 -985 -69 -1917 -363 -2760 -870 -1264 -760 -2208 -1934 -2659 -3307 -32 -95 -60 -175 -63 -178 -3 -3 -64 56 -135 132 -642 682 -1120 1351 -1498 2098 -732 1446 -987 3034 -769 4795 278 2255 1339 4097 3173 5510 1282 987 2679 1557 4191 1709 562 57 1196 54 1795 -9 306 -33 779 -110 1064 -175 1095 -249 2102 -723 3076 -1449 190 -141 328 -197 489 -199 156 -1 292 52 405 159 212 199 267 469 147 717 -67 139 -146 216 -437 425 -1322 947 -2771 1534 -4289 1736 -205 28 -422 50 -635 66 -138 11 -914 21 -1030 14z m695 -12424 c509 -38 981 -145 1445 -327 175 -68 521 -238 679 -332 957 -573 1661 -1427 2060 -2497 101 -272 248 -838 227 -872 -8 -12 -258 -176 -411 -269 -740 -451 -1567 -797 -2365 -988 -554 -133 -920 -184 -1638 -231 -372 -24 -420 -25 -637 -15 -944 45 -1778 209 -2610 513 -608 222 -1175 509 -1758 891 l-152 99 6 37 c109 634 369 1288 730 1839 280 427 681 855 1103 1176 741 564 1650 905 2601 975 166 12 563 13 720 1z"
       id="path1" />
    <path
       d="M16280 16203 c-85 -7 -161 -27 -240 -65 -104 -50 -217 -158 -268 -255 -71 -135 -90 -308 -52 -458 54 -211 231 -386 445 -440 76 -19 224 -19 300 0 224 58 399 234 451 453 34 139 15 300 -47 427 -108 216 -350 355 -589 338z"
       id="path2" />
    <path
       d="M9405 15323 c-901 -63 -1654 -394 -2274 -998 -865 -844 -1238 -2046 -1001 -3235 188 -946 766 -1781 1590 -2301 590 -371 1269 -556 1975 -536 1056 29 2012 504 2672 1327 609 760 876 1753 733 2730 -134 911 -630 1746 -1367 2302 -341 256 -760 467 -1148 577 -388 110 -821 159 -1180 134z m525 -1258 c248 -38 458 -105 680 -216 463 -232 823 -594 1055 -1061 434 -876 255 -1923 -450 -2624 -347 -344 -760 -559 -1240 -645 -113 -21 -162 -24 -375 -23 -210 0 -263 3 -373 23 -485 86 -912 305 -1247 641 -953 955 -897 2489 123 3366 355 305 786 495 1247 550 144 17 435 11 580 -11z"
       id="path3" />
  </g>
</svg>
